<?xml version="1.0" encoding="UTF-8"?>
<svg version="1.1" xmlns="http://www.w3.org/2000/svg" width="610" height="444">
<path d="M0 0 C1.19236267 -0.00151062 1.19236267 -0.00151062 2.40881348 -0.00305176 C22.10473903 0.01375448 41.00616349 1.90326736 60 7.25 C62.12380167 7.7550658 64.24873772 8.25539537 66.375 8.75 C70.79769144 9.86307361 74.93741023 11.25635163 79.1328125 13.0390625 C81.34659012 13.9740367 83.56046813 14.85489506 85.8046875 15.7109375 C106.13629721 23.57901634 123.18963415 35.31504031 139 50.25 C139.74765625 50.94480469 140.4953125 51.63960937 141.265625 52.35546875 C160.97048165 71.26799725 173.4542274 96.52111511 174.45410156 124.0300293 C174.67639774 137.50614356 172.25968386 150.47094842 168 163.25 C167.34 163.25 166.68 163.25 166 163.25 C165.896875 164.11367187 165.79375 164.97734375 165.6875 165.8671875 C163.0289402 178.94851016 151.53520544 193.2694741 142 202.25 C141.34 202.25 140.68 202.25 140 202.25 C139.731875 202.889375 139.46375 203.52875 139.1875 204.1875 C138 206.25 138 206.25 135 207.25 C135 207.91 135 208.57 135 209.25 C133.1015625 210.90625 133.1015625 210.90625 130.625 212.75 C128.27095638 214.51366443 126.0808095 216.1691905 124 218.25 C123.01 218.25 122.02 218.25 121 218.25 C121 218.91 121 219.57 121 220.25 C118.67241803 221.80172131 116.3566129 223.22962102 113.9375 224.625 C113.28072266 225.01171875 112.62394531 225.3984375 111.94726562 225.796875 C110.62454306 226.57356726 109.29817346 227.34408135 107.96826172 228.10839844 C106.6629904 228.86546228 105.36741264 229.63950757 104.08251953 230.43066406 C100.67464125 232.49632059 99.0953231 233.25 95 233.25 C95 233.91 95 234.57 95 235.25 C81.96284592 240.92706517 68.84026746 245.74171743 55 249.0625 C54.14027588 249.26939453 53.28055176 249.47628906 52.39477539 249.68945312 C48.24564636 250.64462516 44.17518939 251.39157945 39.9375 251.82421875 C36.2324078 251.80859594 36.2324078 251.80859594 35 253.25 C24.87601363 254.51860031 14.60778108 254.40650496 4.42260742 254.38037109 C1.93727544 254.37499951 -0.5478765 254.38035804 -3.03320312 254.38671875 C-27.70326659 254.39836671 -27.70326659 254.39836671 -32 252.25 C-41.01257237 249.70171163 -41.01257237 249.70171163 -50.02636719 251.07666016 C-53.83948575 253.3046686 -57.16503352 256.07235386 -60.48168945 258.97216797 C-62.84015504 260.95708658 -65.41657227 262.57320917 -68 264.25 C-69.30647616 265.15440559 -70.60966179 266.06357642 -71.91015625 266.9765625 C-72.59013672 267.4509375 -73.27011719 267.9253125 -73.97070312 268.4140625 C-75.37153154 269.39241885 -76.76995584 270.37422603 -78.16601562 271.359375 C-81.67356202 273.79766936 -84.9057466 275.89322987 -89 277.25 C-89 277.91 -89 278.57 -89 279.25 C-89.99 279.25 -90.98 279.25 -92 279.25 C-92 279.91 -92 280.57 -92 281.25 C-94.26121907 282.89918244 -96.52116244 284.43094309 -98.875 285.9375 C-100.27010163 286.84808506 -101.66463309 287.75954426 -103.05859375 288.671875 C-103.74034668 289.11595703 -104.42209961 289.56003906 -105.12451172 290.01757812 C-107.42715789 291.53069423 -109.68742762 293.09739739 -111.9375 294.6875 C-116.3525138 297.80398033 -120.7968624 300.87587309 -125.25 303.9375 C-126.26114868 304.6334729 -126.26114868 304.6334729 -127.29272461 305.34350586 C-128.58502571 306.23153309 -129.87867963 307.11759559 -131.17382812 308.00146484 C-132.36929772 308.81879526 -133.56088696 309.64183751 -134.74804688 310.47119141 C-138.77884615 313.25 -138.77884615 313.25 -141 313.25 C-140.37808618 308.76881278 -138.6147632 305.09866747 -136.5625 301.125 C-136.20833008 300.42834229 -135.85416016 299.73168457 -135.48925781 299.01391602 C-131.96624988 292.11380096 -128.3485848 285.26256321 -124.7265625 278.4140625 C-121.67394567 272.63999833 -118.6475602 266.85234286 -115.625 261.0625 C-114.87524902 259.62861938 -114.87524902 259.62861938 -114.11035156 258.16577148 C-111.35457542 252.88541785 -108.64613731 247.58616789 -106 242.25 C-105.34 242.25 -104.68 242.25 -104 242.25 C-103.896875 241.528125 -103.79375 240.80625 -103.6875 240.0625 C-102.93880305 236.99964883 -101.66483151 234.90569637 -100 232.25 C-100.70346558 231.81131592 -100.70346558 231.81131592 -101.42114258 231.36376953 C-103.55189165 230.0346545 -105.68220003 228.70483472 -107.8125 227.375 C-108.55048828 226.91480469 -109.28847656 226.45460938 -110.04882812 225.98046875 C-110.76103516 225.53574219 -111.47324219 225.09101563 -112.20703125 224.6328125 C-112.8616333 224.22434082 -113.51623535 223.81586914 -114.19067383 223.39501953 C-115.8092467 222.3707169 -117.40624377 221.31250416 -119 220.25 C-119 219.59 -119 218.93 -119 218.25 C-119.53238281 218.188125 -120.06476563 218.12625 -120.61328125 218.0625 C-124.06426752 216.88769616 -126.48322433 214.61085047 -129.1875 212.25 C-129.75686279 211.75959229 -130.32622559 211.26918457 -130.9128418 210.76391602 C-140.88548803 202.08747531 -140.88548803 202.08747531 -145 197.25 C-145 196.59 -145 195.93 -145 195.25 C-145.99 194.92 -146.98 194.59 -148 194.25 C-149.68239636 192.26280003 -151.19397938 190.31002203 -152.6875 188.1875 C-153.12666748 187.56480225 -153.56583496 186.94210449 -154.01831055 186.30053711 C-170.24628416 162.66497083 -175.67813927 135.61025651 -171.12866211 107.22583008 C-169.85091629 100.55864963 -167.92037932 94.36794718 -165 88.25 C-164.56816406 87.30898437 -164.13632813 86.36796875 -163.69140625 85.3984375 C-160.14921281 77.96847078 -156.10395232 70.73339889 -151 64.25 C-150.34 64.25 -149.68 64.25 -149 64.25 C-148.34 62.6 -147.68 60.95 -147 59.25 C-146.34 59.25 -145.68 59.25 -145 59.25 C-144.7628125 58.68796875 -144.525625 58.1259375 -144.28125 57.546875 C-142.71052303 54.73105958 -140.78528536 52.77044584 -138.5 50.5 C-137.7059375 49.70078125 -136.911875 48.9015625 -136.09375 48.078125 C-134 46.25 -134 46.25 -132 46.25 C-132 45.59 -132 44.93 -132 44.25 C-130.57421875 42.7421875 -130.57421875 42.7421875 -128.6875 41.125 C-128.07261719 40.58617187 -127.45773438 40.04734375 -126.82421875 39.4921875 C-125 38.25 -125 38.25 -122 38.25 C-122 37.59 -122 36.93 -122 36.25 C-121.01 36.25 -120.02 36.25 -119 36.25 C-119 35.59 -119 34.93 -119 34.25 C-106.58725739 24.07461594 -88.83890516 15.93931242 -73.32592773 11.88574219 C-71.11011904 11.28009866 -68.95698873 10.58254383 -66.78515625 9.8359375 C-53.34964049 5.32249779 -40.10487989 2.53990949 -26 1.25 C-24.70320312 1.0746875 -23.40640625 0.899375 -22.0703125 0.71875 C-14.74900173 -0.09663814 -7.35793612 0.006462 0 0 Z M-89 106.25 C-89 117.14 -89 128.03 -89 139.25 C-77.78 139.25 -66.56 139.25 -55 139.25 C-55 128.36 -55 117.47 -55 106.25 C-66.22 106.25 -77.44 106.25 -89 106.25 Z M-15 106.25 C-15 117.14 -15 128.03 -15 139.25 C-3.78 139.25 7.44 139.25 19 139.25 C19 128.36 19 117.47 19 106.25 C7.78 106.25 -3.44 106.25 -15 106.25 Z M58 106.25 C58 117.14 58 128.03 58 139.25 C69.22 139.25 80.44 139.25 92 139.25 C92 128.36 92 117.47 92 106.25 C80.78 106.25 69.56 106.25 58 106.25 Z " fill="#976BFC" transform="translate(248,30.75)"/>
<path d="M0 0 C8.88851177 1.40609226 17.85504263 5.8876917 25.29296875 10.8671875 C26.88563044 11.92410258 28.5670236 12.84378194 30.25 13.75 C43.28705112 21.17018102 59.91360448 34.15690124 68 47 C68 47.66 68 48.32 68 49 C68.66 49 69.32 49 70 49 C71.51309651 51.11710245 72.8641174 53.20406678 74.1875 55.4375 C74.58461182 56.10765137 74.98172363 56.77780273 75.39086914 57.46826172 C88.19533962 79.68046476 92.6235464 106.86538445 86 132 C82.06061108 145.12577904 74.92597748 158.55007514 66 169 C65.34 169 64.68 169 64 169 C63.731875 169.5775 63.46375 170.155 63.1875 170.75 C61.97070811 173.05550043 60.69666121 175.02056192 59 177 C58.34 177 57.68 177 57 177 C57 177.66 57 178.32 57 179 C48.33981711 188.19507654 36.98885673 195.26539238 26.16796875 201.63793945 C22.08289137 203.94599679 22.08289137 203.94599679 20 208 C20.66 208 21.32 208 22 208 C22.40089844 208.81339844 22.80179688 209.62679687 23.21484375 210.46484375 C28.93852578 222.00305991 34.90503696 233.40863369 41.125 244.6875 C43.93979316 249.81444469 46.53123837 255.04171304 49.12109375 260.28515625 C50.43993759 262.92496767 51.81305709 265.52862267 53.22265625 268.12109375 C53.77590576 269.13961426 53.77590576 269.13961426 54.34033203 270.17871094 C55.05848537 271.49356755 55.78192494 272.80555403 56.51123047 274.11425781 C58.06654637 276.96271441 59 278.69985725 59 282 C54.73542358 280.75771035 51.64015299 279.26344024 48.125 276.5625 C43.46972672 273.06945729 38.74372687 269.71984243 33.9375 266.4375 C32.55850023 265.49362621 31.17959201 264.54961863 29.80078125 263.60546875 C29.14803223 263.15864746 28.4952832 262.71182617 27.82275391 262.25146484 C23.09955038 259.00861174 18.42031674 255.70256764 13.734375 252.40625 C8.46371694 248.70631785 3.17434281 245.03369078 -2.125 241.375 C-2.78193848 240.91963867 -3.43887695 240.46427734 -4.11572266 239.99511719 C-8.16843924 237.20286329 -12.27673995 234.58366648 -16.52685547 232.10009766 C-17.25606201 231.55554932 -17.25606201 231.55554932 -18 231 C-18 230.34 -18 229.68 -18 229 C-18.70125 228.7525 -19.4025 228.505 -20.125 228.25 C-23 227 -23 227 -25.75 224.8125 C-29.11408142 222.93637767 -29.5981956 222.79570779 -33.14453125 223.2890625 C-33.94294434 223.39677979 -34.74135742 223.50449707 -35.56396484 223.61547852 C-37.80728759 223.96958087 -40.0422794 224.35128674 -42.27734375 224.75390625 C-67.72467335 229.30014248 -93.74697829 228.01212176 -119 223 C-120.46483854 222.7239307 -121.92968172 222.44788602 -123.39453125 222.171875 C-129.7873643 220.89194676 -135.87829536 219.22150529 -142 217 C-143.02222656 216.66355469 -144.04445313 216.32710937 -145.09765625 215.98046875 C-153.88331237 213.01890034 -161.99113542 209.2543734 -170.18701172 204.94921875 C-171.79520659 204.10722284 -173.41444959 203.28640381 -175.03515625 202.46875 C-181.32122863 199.21265495 -186.88428662 195.27373614 -192.46875 190.953125 C-194.26295257 189.56870944 -196.114388 188.25707466 -198 187 C-198 186.34 -198 185.68 -198 185 C-198.928125 184.62875 -198.928125 184.62875 -199.875 184.25 C-202.37480203 182.77952822 -202.83316022 181.58596924 -204 179 C-203.18660156 178.95512451 -202.37320313 178.91024902 -201.53515625 178.86401367 C-187.35783697 178.06364898 -173.22047806 177.2114133 -159.125 175.4375 C-158.11050781 175.31076904 -157.09601563 175.18403809 -156.05078125 175.0534668 C-151.68245354 174.8308639 -151.68245354 174.8308639 -148 173 C-146.26501311 172.68903132 -144.52224873 172.42124951 -142.77734375 172.171875 C-135.86130399 171.06301727 -129.26395215 169.26400151 -122.5625 167.25 C-121.37470947 166.89583008 -120.18691895 166.54166016 -118.96313477 166.17675781 C-111.8689442 164.01194875 -105.19202808 161.65283985 -98.5703125 158.296875 C-96.02699229 157.01361921 -93.47984477 155.99515615 -90.8125 155 C-86.42870696 153.28890659 -82.5690381 151.06451037 -78.58203125 148.578125 C-75.85197912 146.90953036 -73.06997494 145.38610971 -70.25 143.875 C-67.21104803 142.24161705 -64.27602833 140.58641617 -61.4375 138.625 C-59 137 -59 137 -57 137 C-57 136.34 -57 135.68 -57 135 C-55.68 134.67 -54.36 134.34 -53 134 C-53 133.34 -53 132.68 -53 132 C-52.38125 131.9175 -51.7625 131.835 -51.125 131.75 C-48.84276697 131.21351879 -48.84276697 131.21351879 -48 129.125 C-47.67 128.42375 -47.34 127.7225 -47 127 C-43.57142857 124 -43.57142857 124 -41 124 C-40.62875 123.13375 -40.62875 123.13375 -40.25 122.25 C-38.81700012 119.67060021 -37.21575324 117.93878408 -35 116 C-34.34 116 -33.68 116 -33 116 C-33 115.34 -33 114.68 -33 114 C-32.34 114 -31.68 114 -31 114 C-30.72381836 113.40848145 -30.44763672 112.81696289 -30.16308594 112.20751953 C-29.0617725 110.11724328 -27.90006563 108.48748101 -26.390625 106.6796875 C-25.88635986 106.06786621 -25.38209473 105.45604492 -24.86254883 104.82568359 C-24.06433716 103.86009521 -24.06433716 103.86009521 -23.25 102.875 C-5.09215604 80.38211489 5.41687493 51.24619681 2.39648438 22.10546875 C2.04793712 19.08138253 1.65993999 16.06353983 1.25976562 13.04589844 C0.70934629 8.71082883 0.3644273 4.35394726 0 0 Z " fill="#976BFC" transform="translate(446,131)"/>
</svg>
