<?xml version="1.0" encoding="UTF-8"?>
<svg xmlns="http://www.w3.org/2000/svg" xmlns:xlink="http://www.w3.org/1999/xlink" width="610px" height="444px" viewBox="0 0 610 444" version="1.1">
<g id="surface1">
<path style=" stroke:none;fill-rule:nonzero;fill:rgb(59.215689%,41.960785%,98.431373%);fill-opacity:1;" d="M 258.730469 26.683594 C 261.234375 26.6875 263.734375 26.664062 266.238281 26.636719 C 302.191406 26.5 339.324219 38.324219 365.871094 63.082031 C 368.050781 65.136719 368.050781 65.136719 371 67 C 371 67.660156 371 68.320312 371 69 C 371.660156 69 372.320312 69 373 69 C 380.449219 77.820312 386.523438 87.347656 391 98 C 391.433594 99.027344 391.867188 100.050781 392.3125 101.109375 C 398.894531 119.84375 396.050781 141.476562 387.875 159.125 C 373.753906 185.777344 347.363281 205.511719 318.867188 214.6875 C 300.441406 220.292969 282.65625 223.199219 263.375 223.1875 C 262.15625 223.1875 260.9375 223.1875 259.679688 223.1875 C 248.839844 223.121094 238 222.578125 227.394531 220.1875 C 222.90625 219.941406 221.507812 221.179688 218 223.9375 C 216.777344 224.871094 215.550781 225.800781 214.324219 226.726562 C 213.644531 227.246094 212.964844 227.765625 212.265625 228.300781 C 207.871094 231.59375 203.332031 234.6875 198.8125 237.8125 C 197.828125 238.496094 196.84375 239.179688 195.828125 239.886719 C 188.75 244.800781 181.65625 249.683594 174.535156 254.527344 C 171.015625 256.925781 167.507812 259.335938 164.039062 261.804688 C 163.4375 262.230469 162.832031 262.660156 162.210938 263.097656 C 160.625 264.222656 159.046875 265.355469 157.46875 266.488281 C 155 268 155 268 152 268 C 152.613281 265.171875 153.476562 262.851562 154.855469 260.3125 C 155.414062 259.273438 155.414062 259.273438 155.984375 258.214844 C 156.378906 257.484375 156.777344 256.753906 157.1875 256 C 158.015625 254.460938 158.839844 252.925781 159.664062 251.386719 C 160.066406 250.636719 160.46875 249.882812 160.882812 249.109375 C 162.332031 246.371094 163.703125 243.597656 165.0625 240.8125 C 167.171875 236.539062 169.46875 232.425781 171.875 228.3125 C 176.464844 220.46875 180.238281 212.265625 184 204 C 183.261719 203.886719 182.523438 203.777344 181.761719 203.660156 C 173.574219 201.703125 166.328125 194.269531 160 189 C 158.851562 188.058594 158.851562 188.058594 157.683594 187.097656 C 150.8125 181.253906 145.003906 174.503906 140 167 C 140 166.011719 140 165.019531 140 164 C 139.339844 164 138.679688 164 138 164 C 131.746094 150.554688 128.820312 140.105469 128.8125 125.1875 C 128.800781 123.953125 128.789062 122.722656 128.777344 121.449219 C 128.738281 98.410156 139.625 80.894531 155.1875 64.4375 C 171.90625 48.15625 193.742188 38.121094 216 32 C 217.472656 31.585938 217.472656 31.585938 218.976562 31.164062 C 232.203125 27.640625 245.117188 26.648438 258.730469 26.683594 Z M 193 109 C 193 117.25 193 125.5 193 134 C 201.578125 134 210.160156 134 219 134 C 219 125.75 219 117.5 219 109 C 210.421875 109 201.839844 109 193 109 Z M 250 109 C 250 117.25 250 125.5 250 134 C 258.25 134 266.5 134 275 134 C 275 125.75 275 117.5 275 109 C 266.75 109 258.5 109 250 109 Z M 306 109 C 306 117.25 306 125.5 306 134 C 314.578125 134 323.160156 134 332 134 C 332 125.75 332 117.5 332 109 C 323.421875 109 314.839844 109 306 109 Z M 306 109 "/>
<path style=" stroke:none;fill-rule:nonzero;fill:rgb(59.215689%,41.960785%,98.431373%);fill-opacity:1;" d="M 413 104 C 418.199219 104.5625 422.113281 106.261719 426.6875 108.625 C 427.386719 108.980469 428.085938 109.335938 428.804688 109.703125 C 434.765625 112.78125 440.476562 116.1875 446 120 C 446.757812 120.519531 447.515625 121.039062 448.296875 121.574219 C 448.859375 122.042969 449.421875 122.515625 450 123 C 450 123.660156 450 124.320312 450 125 C 450.589844 125.273438 451.179688 125.550781 451.789062 125.832031 C 458.101562 129.164062 462.546875 134.527344 466.625 140.25 C 467.335938 141.242188 467.335938 141.242188 468.066406 142.25 C 477.097656 155.027344 481.722656 168.027344 481.578125 183.753906 C 481.5625 185.800781 481.597656 187.84375 481.632812 189.890625 C 481.710938 203.082031 478.136719 214.792969 471 226 C 470.339844 226 469.679688 226 469 226 C 468.863281 226.839844 468.863281 226.839844 468.722656 227.699219 C 466.253906 235.554688 458.269531 242.011719 452 247 C 450.984375 247.816406 449.96875 248.632812 448.921875 249.476562 C 442.921875 254.238281 436.902344 258.609375 430 262 C 434.355469 270.824219 438.804688 279.597656 443.375 288.3125 C 443.832031 289.1875 444.292969 290.066406 444.765625 290.96875 C 447.125 295.476562 449.515625 299.960938 451.960938 304.421875 C 452.429688 305.285156 452.898438 306.152344 453.382812 307.042969 C 454.273438 308.6875 455.175781 310.328125 456.089844 311.960938 C 456.488281 312.695312 456.886719 313.433594 457.296875 314.191406 C 457.652344 314.832031 458.003906 315.472656 458.371094 316.136719 C 459.152344 318.449219 458.78125 319.726562 458 322 C 447.425781 315.007812 436.984375 307.828125 426.640625 300.5 C 420.117188 295.875 413.601562 291.261719 406.851562 286.96875 C 404 285 404 285 401.148438 282.40625 C 395.632812 277.613281 395.632812 277.613281 388.710938 275.902344 C 384.136719 276.269531 379.675781 277.160156 375.171875 278.007812 C 337.40625 284.824219 296.796875 273.222656 265.609375 251.898438 C 262.222656 249.4375 259.097656 246.816406 256 244 C 256.328125 243.011719 256.660156 242.019531 257 241 C 257.886719 240.976562 257.886719 240.976562 258.792969 240.957031 C 292.171875 240.046875 323.398438 233.90625 353 218 C 353.824219 217.582031 354.648438 217.164062 355.496094 216.734375 C 361.101562 213.8125 366.140625 210.136719 371.21875 206.390625 C 373.804688 204.488281 375.933594 203.023438 379 202 C 379.496094 200.515625 379.496094 200.515625 380 199 C 381.636719 197.457031 381.636719 197.457031 383.6875 195.8125 C 387.238281 192.8125 389.9375 189.707031 392.578125 185.894531 C 394 184 394 184 395.894531 182.191406 C 398.542969 179.4375 400.484375 176.386719 402.4375 173.125 C 403.027344 172.144531 403.027344 172.144531 403.628906 171.140625 C 407.371094 164.707031 409.785156 158.105469 412 151 C 412.351562 150.023438 412.703125 149.042969 413.066406 148.035156 C 415.148438 141.273438 415.15625 134.566406 415.125 127.5625 C 415.128906 126.660156 415.132812 125.757812 415.136719 124.828125 C 415.125 117.730469 414.519531 110.949219 413 104 Z M 413 104 "/>
<path style=" stroke:none;fill-rule:nonzero;fill:rgb(99.607843%,99.607843%,99.607843%);fill-opacity:1;" d="M 402.3125 360.6875 C 408.539062 364.253906 412.730469 369.191406 415 376 C 415.09375 378.054688 415.128906 380.109375 415.132812 382.164062 C 415.132812 383.367188 415.136719 384.570312 415.136719 385.8125 C 415.132812 387.070312 415.128906 388.328125 415.125 389.625 C 415.128906 391.523438 415.128906 391.523438 415.136719 393.460938 C 415.136719 394.664062 415.132812 395.863281 415.132812 397.101562 C 415.132812 398.207031 415.128906 399.316406 415.128906 400.457031 C 415 403 415 403 414 404 C 412.332031 404.039062 410.667969 404.042969 409 404 C 408.671875 402.351562 408.339844 400.699219 408 399 C 407.09375 399.640625 406.183594 400.277344 405.25 400.9375 C 399.449219 404.617188 393.738281 404.507812 387 404 C 381 402.300781 376.78125 398.886719 373 394 C 369.703125 387.648438 369.691406 378.484375 371.6875 371.640625 C 377.507812 360.675781 391.011719 355.441406 402.3125 360.6875 Z M 380.625 373.0625 C 378.160156 377.519531 378.359375 382.011719 379 387 C 380.511719 390.824219 382.648438 392.628906 386 395 C 390.773438 396.589844 395.148438 396.796875 399.75 394.8125 C 402.855469 392.3125 405.214844 389.574219 407 386 C 407.371094 380.453125 407.328125 376.683594 404 372 C 400.347656 368.882812 397.136719 367.175781 392.375 366.4375 C 387.269531 367.289062 384.449219 369.742188 380.625 373.0625 Z M 380.625 373.0625 "/>
<path style=" stroke:none;fill-rule:nonzero;fill:rgb(99.607843%,99.607843%,99.607843%);fill-opacity:1;" d="M 257.3125 360.6875 C 263.539062 364.253906 267.730469 369.191406 270 376 C 270.09375 378.054688 270.128906 380.109375 270.132812 382.164062 C 270.132812 383.367188 270.136719 384.570312 270.136719 385.8125 C 270.132812 387.070312 270.128906 388.328125 270.125 389.625 C 270.128906 391.523438 270.128906 391.523438 270.136719 393.460938 C 270.136719 394.664062 270.132812 395.863281 270.132812 397.101562 C 270.132812 398.207031 270.128906 399.316406 270.128906 400.457031 C 270 403 270 403 269 404 C 267.332031 404.039062 265.667969 404.042969 264 404 C 263.671875 402.351562 263.339844 400.699219 263 399 C 262.09375 399.640625 261.183594 400.277344 260.25 400.9375 C 254.449219 404.617188 248.738281 404.507812 242 404 C 236 402.300781 231.78125 398.886719 228 394 C 224.703125 387.648438 224.691406 378.484375 226.6875 371.640625 C 232.507812 360.675781 246.011719 355.441406 257.3125 360.6875 Z M 235.625 373.0625 C 233.160156 377.519531 233.359375 382.011719 234 387 C 235.511719 390.824219 237.648438 392.628906 241 395 C 245.773438 396.589844 250.148438 396.796875 254.75 394.8125 C 257.855469 392.3125 260.214844 389.574219 262 386 C 262.371094 380.453125 262.328125 376.683594 259 372 C 255.347656 368.882812 252.136719 367.175781 247.375 366.4375 C 242.269531 367.289062 239.449219 369.742188 235.625 373.0625 Z M 235.625 373.0625 "/>
<path style=" stroke:none;fill-rule:nonzero;fill:rgb(99.607843%,99.607843%,99.607843%);fill-opacity:1;" d="M 167 345.1875 C 169.921875 346.742188 170.792969 347.390625 171.875 350.550781 C 171.917969 351.359375 171.957031 352.167969 172 353 C 171.339844 353.660156 170.679688 354.320312 170 355 C 166.972656 354.730469 164.476562 354.210938 161.691406 352.984375 C 155.898438 350.867188 149.054688 350.746094 143.328125 353.097656 C 138.054688 356.414062 133.308594 360.835938 131.390625 366.941406 C 130.136719 373.554688 130.734375 379.035156 134 385 C 137.617188 390.28125 141.675781 393.699219 148 395 C 152.828125 395.421875 157.300781 395.601562 161.75 393.5 C 165.160156 391.925781 167.296875 391.730469 171 392 C 171.75 394.25 171.75 394.25 172 397 C 169.519531 400.835938 165.914062 402.199219 161.6875 403.457031 C 152.578125 405.296875 144.144531 404.554688 136 400 C 128.648438 395.109375 124.25 388.449219 122 380 C 120.84375 370.554688 122.199219 362.769531 127.4375 354.816406 C 137.019531 342.632812 152.828125 338.804688 167 345.1875 Z M 167 345.1875 "/>
<path style=" stroke:none;fill-rule:nonzero;fill:rgb(99.607843%,99.607843%,99.607843%);fill-opacity:1;" d="M 183 342.875 C 186 343 186 343 187 344 C 187.15625 345.339844 187.25 346.6875 187.316406 348.035156 C 187.378906 349.25 187.378906 349.25 187.445312 350.484375 C 187.484375 351.335938 187.523438 352.1875 187.5625 353.0625 C 187.605469 353.917969 187.648438 354.769531 187.695312 355.648438 C 187.800781 357.765625 187.902344 359.882812 188 362 C 189.59375 361.269531 189.59375 361.269531 191.222656 360.527344 C 196.296875 358.363281 200.863281 358.003906 206.175781 359.691406 C 212.285156 362.441406 215.324219 366.484375 219 372 C 219.242188 375.171875 219.242188 375.171875 219.230469 379.039062 C 219.230469 379.71875 219.230469 380.402344 219.230469 381.105469 C 219.226562 382.542969 219.21875 383.980469 219.207031 385.414062 C 219.1875 387.625 219.183594 389.832031 219.1875 392.039062 C 219.148438 402.851562 219.148438 402.851562 218 404 C 215.5 404.125 215.5 404.125 213 404 C 211.351562 402.351562 211.8125 400.386719 211.753906 398.117188 C 211.722656 397.113281 211.6875 396.113281 211.65625 395.078125 C 211.59375 392.964844 211.535156 390.855469 211.484375 388.742188 C 211.28125 378.578125 211.28125 378.578125 206.3125 370.0625 C 202.410156 367.632812 200.519531 367.34375 196 368 C 192.8125 369.304688 191.371094 370.472656 189.398438 373.285156 C 187.292969 378.878906 187.464844 384.382812 187.375 390.3125 C 187.324219 392.683594 187.269531 395.054688 187.210938 397.425781 C 187.195312 398.472656 187.175781 399.515625 187.15625 400.59375 C 187 403 187 403 186 404 C 183.5625 404.1875 183.5625 404.1875 181 404 C 179 402 179 402 178.753906 399.5625 C 178.753906 398.542969 178.753906 397.519531 178.757812 396.464844 C 178.753906 395.308594 178.75 394.148438 178.746094 392.957031 C 178.753906 391.699219 178.761719 390.445312 178.769531 389.152344 C 178.769531 387.871094 178.769531 386.589844 178.769531 385.265625 C 178.773438 382.550781 178.78125 379.839844 178.792969 377.125 C 178.8125 373.636719 178.816406 370.152344 178.8125 366.664062 C 178.816406 363.347656 178.824219 360.03125 178.832031 356.714844 C 178.832031 355.457031 178.835938 354.199219 178.835938 352.90625 C 178.839844 351.75 178.847656 350.59375 178.855469 349.40625 C 178.859375 347.871094 178.859375 347.871094 178.867188 346.308594 C 179.070312 342.800781 179.417969 343.023438 183 342.875 Z M 183 342.875 "/>
<path style=" stroke:none;fill-rule:nonzero;fill:rgb(99.607843%,99.607843%,99.607843%);fill-opacity:1;" d="M 448.375 361.125 C 451.625 363.445312 454.640625 365.742188 457 369 C 457.4375 371.8125 457.4375 371.8125 457 374 C 456 375 456 375 452.9375 375.0625 C 451.96875 375.042969 451 375.019531 450 375 C 449.792969 374.382812 449.585938 373.761719 449.375 373.125 C 448.113281 370.789062 448.113281 370.789062 445.4375 369.6875 C 441.199219 368.839844 437.121094 368.507812 433 370 C 430.726562 372.464844 430.726562 372.464844 429 375 C 429.609375 375.136719 430.21875 375.273438 430.847656 375.410156 C 433.628906 376.035156 436.410156 376.675781 439.1875 377.3125 C 440.148438 377.527344 441.105469 377.738281 442.09375 377.960938 C 453.382812 380.574219 453.382812 380.574219 457 386 C 457.664062 392.875 457.664062 392.875 455.375 396.75 C 449.214844 402.585938 444.15625 404.363281 435.859375 404.285156 C 430.464844 403.746094 426.683594 401.382812 422.5625 398 C 420.921875 395.898438 420.253906 394.640625 420 392 C 420.496094 390.515625 420.496094 390.515625 421 389 C 423.125 388.125 423.125 388.125 426 388 C 427.742188 389.375 429.125 390.875 430.570312 392.554688 C 432.914062 394.925781 435.125 395.007812 438.375 395.25 C 442.230469 394.984375 444 394.382812 447 392 C 447.328125 391.011719 447.660156 390.019531 448 389 C 447.390625 388.863281 446.78125 388.726562 446.152344 388.589844 C 443.371094 387.964844 440.589844 387.324219 437.8125 386.6875 C 436.851562 386.472656 435.894531 386.261719 434.90625 386.039062 C 424.058594 383.527344 424.058594 383.527344 420.625 379.3125 C 419.632812 375.636719 419.640625 372.523438 421 369 C 428.363281 360.394531 437.429688 357.476562 448.375 361.125 Z M 448.375 361.125 "/>
<path style=" stroke:none;fill-rule:nonzero;fill:rgb(99.607843%,99.607843%,99.607843%);fill-opacity:1;" d="M 368 343 C 368 344.980469 368 346.960938 368 349 C 357.109375 349 346.21875 349 335 349 C 335 355.929688 335 362.859375 335 370 C 337.457031 369.964844 337.457031 369.964844 339.960938 369.929688 C 342.097656 369.910156 344.238281 369.894531 346.375 369.875 C 347.457031 369.859375 348.535156 369.839844 349.648438 369.824219 C 350.679688 369.816406 351.710938 369.8125 352.773438 369.804688 C 354.203125 369.789062 354.203125 369.789062 355.660156 369.773438 C 358 370 358 370 360 372 C 359.445312 376.554688 359.445312 376.554688 358 378 C 356.289062 378.015625 354.578125 377.964844 352.871094 377.878906 C 351.835938 377.832031 350.800781 377.78125 349.734375 377.734375 C 348.648438 377.675781 347.558594 377.621094 346.4375 377.5625 C 345.34375 377.511719 344.253906 377.457031 343.125 377.40625 C 340.417969 377.273438 337.707031 377.140625 335 377 C 335.0625 378.066406 335.0625 378.066406 335.125 379.15625 C 335.300781 382.375 335.464844 385.59375 335.625 388.8125 C 335.6875 389.933594 335.753906 391.050781 335.820312 392.203125 C 335.871094 393.277344 335.921875 394.351562 335.976562 395.457031 C 336.027344 396.445312 336.082031 397.4375 336.136719 398.457031 C 336 401 336 401 334 404 C 331.4375 404.25 331.4375 404.25 329 404 C 327.246094 402.246094 327.871094 399.777344 327.871094 397.394531 C 327.867188 396.195312 327.863281 395 327.859375 393.765625 C 327.863281 392.460938 327.863281 391.15625 327.867188 389.8125 C 327.867188 388.472656 327.867188 387.128906 327.863281 385.789062 C 327.863281 382.972656 327.863281 380.160156 327.871094 377.34375 C 327.875 373.730469 327.871094 370.113281 327.867188 366.5 C 327.863281 363.730469 327.863281 360.957031 327.867188 358.1875 C 327.867188 356.203125 327.863281 354.21875 327.859375 352.234375 C 327.863281 351.039062 327.867188 349.839844 327.871094 348.605469 C 327.871094 347.542969 327.871094 346.484375 327.871094 345.390625 C 328 343 328 343 329 342 C 331.542969 341.816406 334.066406 341.691406 336.613281 341.613281 C 337.378906 341.585938 338.144531 341.5625 338.933594 341.535156 C 340.558594 341.484375 342.183594 341.433594 343.808594 341.386719 C 346.292969 341.3125 348.773438 341.222656 351.257812 341.132812 C 352.832031 341.082031 354.410156 341.035156 355.988281 340.988281 C 357.101562 340.945312 357.101562 340.945312 358.234375 340.898438 C 362.011719 340.808594 364.804688 340.871094 368 343 Z M 368 343 "/>
<path style=" stroke:none;fill-rule:nonzero;fill:rgb(99.215686%,99.215686%,99.215686%);fill-opacity:1;" d="M 470 344 C 474.707031 344.707031 474.707031 344.707031 476 346 C 476.074219 348.351562 476.082031 350.707031 476.0625 353.0625 C 476.054688 354.351562 476.042969 355.644531 476.035156 356.972656 C 476.023438 357.972656 476.011719 358.96875 476 360 C 477.257812 359.9375 478.515625 359.875 479.8125 359.8125 C 483.703125 359.820312 483.703125 359.820312 486.0625 361.25 C 487 363 487 363 486.6875 365.1875 C 486.460938 365.785156 486.234375 366.382812 486 367 C 482.265625 367.765625 479.652344 368.070312 476 367 C 476.136719 371.292969 476.285156 375.582031 476.4375 379.875 C 476.476562 381.097656 476.515625 382.320312 476.554688 383.582031 C 476.597656 384.75 476.640625 385.914062 476.683594 387.117188 C 476.71875 388.195312 476.757812 389.273438 476.792969 390.386719 C 476.832031 392.980469 476.832031 392.980469 478 395 C 480.027344 395.226562 482.054688 395.445312 484.089844 395.558594 C 486 396 486 396 488 399 C 487.625 401.6875 487.625 401.6875 487 404 C 477.058594 404.625 477.058594 404.625 472.9375 402.1875 C 469.203125 397.96875 468.757812 395.703125 468.804688 390.144531 C 468.808594 389.484375 468.808594 388.820312 468.8125 388.140625 C 468.824219 386.03125 468.847656 383.921875 468.875 381.8125 C 468.886719 380.382812 468.894531 378.949219 468.902344 377.515625 C 468.925781 374.011719 468.957031 370.503906 469 367 C 466.359375 367 463.71875 367 461 367 C 460.3125 365.1875 460.3125 365.1875 460 363 C 461.0625 361.25 461.0625 361.25 463 360 C 465 359.949219 467 359.945312 469 360 C 468.988281 358.929688 468.976562 357.859375 468.964844 356.753906 C 468.957031 355.355469 468.945312 353.960938 468.9375 352.5625 C 468.925781 351.5 468.925781 351.5 468.914062 350.421875 C 468.902344 348.613281 468.949219 346.804688 469 345 C 469.328125 344.671875 469.660156 344.339844 470 344 Z M 470 344 "/>
<path style=" stroke:none;fill-rule:nonzero;fill:rgb(99.215686%,99.215686%,99.215686%);fill-opacity:1;" d="M 285 344 C 286.648438 344.328125 288.300781 344.660156 290 345 C 290 349.949219 290 354.898438 290 360 C 292.164062 359.9375 292.164062 359.9375 294.375 359.875 C 296.835938 359.804688 296.835938 359.804688 299 360 C 301 362 301 362 301.125 364.625 C 301.082031 365.410156 301.042969 366.191406 301 367 C 296.9375 367.851562 294.027344 367.925781 290 367 C 290.109375 370.730469 290.242188 374.457031 290.375 378.1875 C 290.40625 379.242188 290.4375 380.296875 290.46875 381.382812 C 290.507812 382.40625 290.546875 383.429688 290.585938 384.480469 C 290.617188 385.417969 290.648438 386.355469 290.679688 387.320312 C 291.019531 390.171875 291.824219 392.394531 293 395 C 294.671875 395.1875 294.671875 395.1875 296.375 395.375 C 300 396 300 396 302 398 C 302.1875 400.5625 302.1875 400.5625 302 403 C 300.367188 404.632812 298.5625 404.289062 296.3125 404.375 C 292.597656 404.347656 290.390625 404.074219 287.5 401.6875 C 283.453125 397.339844 282.753906 395.214844 282.804688 389.363281 C 282.8125 387.414062 282.8125 387.414062 282.824219 385.429688 C 282.839844 384.054688 282.859375 382.683594 282.875 381.3125 C 282.886719 379.929688 282.894531 378.546875 282.902344 377.164062 C 282.925781 373.773438 282.957031 370.386719 283 367 C 280.691406 367 278.378906 367 276 367 C 275.375 364.625 275.375 364.625 275 362 C 277 360 277 360 280.125 359.875 C 281.074219 359.917969 282.023438 359.957031 283 360 C 282.976562 359.011719 282.953125 358.023438 282.929688 357.007812 C 282.902344 355.085938 282.902344 355.085938 282.875 353.125 C 282.851562 351.847656 282.828125 350.574219 282.804688 349.257812 C 283 346 283 346 285 344 Z M 285 344 "/>
</g>
</svg>
